# xmcd
# Copyright (C) 1995-1998 Ti Kan
#
# Track frame offsets:
#       150
#       10950
#       23965
#       38022
#       52191
#       64716
#       73886
#       88059
#       103602
#       130498
#       147447
#
# Disc length: 2123 seconds
#
# Revision: 0
# Processed by: cddbd v1.5.2PL0 Copyright (c) Steve Scherf et al.
# Submitted via: CD-Transfer v1.0
#
DISCID=a208490b
DTITLE=Utjeha Kose - Hrvoje Hrstiæ, Marko Zeliæ
DYEAR=14
DGENRE=
TTITLE0=Nightly
TTITLE1=Crossing The Abyss
TTITLE2=Aeon
TTITLE3=Crusifix Cabaret
TTITLE4=Draff
TTITLE5=Babel
TTITLE6=Jerusalem
TTITLE7=Height Of Hollow
TTITLE8=Kolovrat
TTITLE9=Sorrow
TTITLE10=Tekovina (Za Satana Panonskog)
EXTD=
EXTT0=
EXTT1=
EXTT2=
EXTT3=
EXTT4=
EXTT5=
EXTT6=
EXTT7=
EXTT8=
EXTT9=
EXTT10=
PLAYORDER=
